<?xml version="1.0" standalone="no"?>
<!DOCTYPE svg PUBLIC "-//W3C//DTD SVG 20010904//EN"
 "http://www.w3.org/TR/2001/REC-SVG-20010904/DTD/svg10.dtd">
<svg version="1.0" xmlns="http://www.w3.org/2000/svg"
 width="500.000000pt" height="500.000000pt" viewBox="0 0 500.000000 500.000000"
 preserveAspectRatio="xMidYMid meet">
<style type="text/css">
	.st0{fill:#FFFFFF;}
</style>
<g transform="translate(0.000000,500.000000) scale(0.100000,-0.100000)"
fill="#000000" stroke="none">
<path d="M675 3078 c-3 -7 -4 -224 -3 -483 l3 -470 159 -3 c121 -2 161 1 168
10 13 22 10 932 -4 946 -17 17 -317 17 -323 0z"/>
<path d="M1025 3078 c-3 -7 -4 -224 -3 -483 l3 -470 130 -3 c113 -2 131 0 142
15 10 13 13 110 12 417 -1 221 -4 430 -8 466 l-6 65 -133 3 c-100 2 -134 -1
-137 -10z"/>
<path d="M3719 2931 c-67 -21 -99 -63 -99 -131 l0 -30 -93 0 -94 0 -64 -82
-64 -83 -3 153 -3 152 -54 0 -55 0 0 -275 0 -275 55 0 55 0 0 86 0 87 68 -86
67 -86 68 -1 69 0 -39 44 c-21 24 -61 71 -90 103 l-51 59 86 99 87 99 3 -37
c3 -32 7 -37 28 -37 l24 0 0 -165 0 -165 55 0 55 0 0 165 0 165 35 0 c34 0 35
1 35 40 0 39 -1 40 -35 40 -32 0 -35 3 -35 28 0 32 16 52 42 52 15 0 18 8 18
45 0 40 -2 45 -22 44 -13 0 -35 -4 -49 -8z"/>
<path d="M4046 2927 c-28 -20 -18 -77 17 -97 24 -13 30 -13 55 0 33 19 42 69
17 94 -20 19 -64 21 -89 3z"/>
<path d="M3850 2635 l0 -275 50 0 50 0 0 275 0 275 -50 0 -50 0 0 -275z"/>
<path d="M1820 2620 l0 -260 135 0 c186 0 239 24 259 117 10 46 -22 115 -63
134 l-31 16 26 13 c54 29 72 126 34 180 -33 47 -84 60 -230 60 l-130 0 0 -260z
m262 150 c22 -27 23 -49 2 -78 -13 -19 -24 -22 -85 -22 l-69 0 0 66 0 67 67
-6 c53 -4 71 -10 85 -27z m8 -210 c11 -11 20 -33 20 -48 0 -45 -30 -64 -110
-70 l-70 -5 0 72 0 71 70 0 c57 0 74 -4 90 -20z"/>
<path d="M2395 2768 c-93 -32 -139 -109 -133 -218 7 -123 81 -193 203 -194
147 0 244 129 205 274 -30 110 -163 177 -275 138z m148 -118 c54 -60 27 -175
-46 -199 -69 -23 -137 32 -137 112 0 111 113 165 183 87z"/>
<path d="M2845 2765 c-140 -50 -180 -243 -71 -351 56 -56 127 -74 207 -51 60
18 114 63 135 114 20 46 17 140 -5 189 -42 93 -160 136 -266 99z m126 -91 c40
-20 63 -74 54 -129 -14 -94 -118 -132 -177 -66 -23 26 -28 40 -28 85 0 98 72
151 151 110z"/>
<path d="M4040 2565 l0 -205 50 0 50 0 0 205 0 205 -50 0 -50 0 0 -205z"/>
<path d="M4240 2680 c33 -50 63 -97 66 -104 3 -7 -24 -59 -61 -115 l-65 -102
57 3 57 3 33 55 c18 30 36 56 40 57 5 2 25 -24 47 -57 l38 -60 59 0 59 0 -69
104 -70 103 65 96 c35 53 64 99 64 102 0 3 -24 5 -53 5 l-53 0 -35 -60 c-18
-33 -36 -60 -39 -60 -3 0 -22 27 -44 60 l-38 60 -59 0 -60 0 61 -90z"/>
</g>
</svg>
